<mxfile host="app.diagrams.net" agent="Mozilla/5.0 (Windows NT 10.0; Win64; x64) AppleWebKit/537.36 (KHTML, like Gecko) Chrome/131.0.0.0 Safari/537.36" version="25.0.3">
  <diagram id="C5RBs43oDa-KdzZeNtuy" name="Page-1">
    <mxGraphModel dx="890" dy="384" grid="1" gridSize="10" guides="1" tooltips="1" connect="1" arrows="1" fold="1" page="1" pageScale="1" pageWidth="827" pageHeight="1169" math="0" shadow="0">
      <root>
        <mxCell id="WIyWlLk6GJQsqaUBKTNV-0" />
        <mxCell id="WIyWlLk6GJQsqaUBKTNV-1" parent="WIyWlLk6GJQsqaUBKTNV-0" />
        <mxCell id="HDausJmTswJrxXoPQpol-4" value="ticket" style="swimlane;fontStyle=1;align=center;verticalAlign=top;childLayout=stackLayout;horizontal=1;startSize=26;horizontalStack=0;resizeParent=1;resizeParentMax=0;resizeLast=0;collapsible=1;marginBottom=0;whiteSpace=wrap;html=1;" vertex="1" parent="WIyWlLk6GJQsqaUBKTNV-1">
          <mxGeometry x="640" y="171" width="160" height="270" as="geometry" />
        </mxCell>
        <mxCell id="HDausJmTswJrxXoPQpol-5" value="&lt;span style=&quot;text-wrap-mode: nowrap;&quot;&gt;- Ticket_ID : Int {key}&lt;/span&gt;&lt;div style=&quot;text-wrap-mode: nowrap;&quot;&gt;&lt;div style=&quot;text-wrap-mode: wrap;&quot;&gt;- flight_no : int&lt;/div&gt;&lt;div style=&quot;text-wrap-mode: wrap;&quot;&gt;- dept_loc : string&lt;/div&gt;&lt;div style=&quot;text-wrap-mode: wrap;&quot;&gt;- dept_date : date&lt;/div&gt;&lt;div style=&quot;text-wrap-mode: wrap;&quot;&gt;- dept_time : time&lt;/div&gt;&lt;div style=&quot;text-wrap-mode: wrap;&quot;&gt;- Arr_loc : string&lt;/div&gt;&lt;div style=&quot;text-wrap-mode: wrap;&quot;&gt;- Arr_date : date&lt;/div&gt;&lt;div style=&quot;text-wrap-mode: wrap;&quot;&gt;- Arr_time : Time&lt;/div&gt;&lt;div style=&quot;text-wrap-mode: wrap;&quot;&gt;- seat_no : int&lt;/div&gt;&lt;div style=&quot;text-wrap-mode: wrap;&quot;&gt;- seat_discreption : string&lt;/div&gt;&lt;div style=&quot;text-wrap-mode: wrap;&quot;&gt;- class : sting&lt;/div&gt;&lt;div style=&quot;text-wrap-mode: wrap;&quot;&gt;- price : currency&lt;/div&gt;&lt;/div&gt;" style="text;strokeColor=none;fillColor=none;align=left;verticalAlign=top;spacingLeft=4;spacingRight=4;overflow=hidden;rotatable=0;points=[[0,0.5],[1,0.5]];portConstraint=eastwest;whiteSpace=wrap;html=1;" vertex="1" parent="HDausJmTswJrxXoPQpol-4">
          <mxGeometry y="26" width="160" height="184" as="geometry" />
        </mxCell>
        <mxCell id="HDausJmTswJrxXoPQpol-6" value="" style="line;strokeWidth=1;fillColor=none;align=left;verticalAlign=middle;spacingTop=-1;spacingLeft=3;spacingRight=3;rotatable=0;labelPosition=right;points=[];portConstraint=eastwest;strokeColor=inherit;" vertex="1" parent="HDausJmTswJrxXoPQpol-4">
          <mxGeometry y="210" width="160" height="60" as="geometry" />
        </mxCell>
        <mxCell id="HDausJmTswJrxXoPQpol-7" value="Room" style="swimlane;fontStyle=1;align=center;verticalAlign=top;childLayout=stackLayout;horizontal=1;startSize=26;horizontalStack=0;resizeParent=1;resizeParentMax=0;resizeLast=0;collapsible=1;marginBottom=0;whiteSpace=wrap;html=1;" vertex="1" parent="WIyWlLk6GJQsqaUBKTNV-1">
          <mxGeometry x="641" y="486" width="160" height="148" as="geometry" />
        </mxCell>
        <mxCell id="HDausJmTswJrxXoPQpol-8" value="- room_id: int {key}&lt;div&gt;- R_num: int&lt;/div&gt;&lt;div&gt;- R_type: string&lt;/div&gt;&lt;div&gt;- R_availiblity: bool&lt;/div&gt;&lt;div&gt;- R_ameneties: string&lt;/div&gt;&lt;div&gt;- R_price : currency&lt;/div&gt;" style="text;strokeColor=none;fillColor=none;align=left;verticalAlign=top;spacingLeft=4;spacingRight=4;overflow=hidden;rotatable=0;points=[[0,0.5],[1,0.5]];portConstraint=eastwest;whiteSpace=wrap;html=1;" vertex="1" parent="HDausJmTswJrxXoPQpol-7">
          <mxGeometry y="26" width="160" height="94" as="geometry" />
        </mxCell>
        <mxCell id="HDausJmTswJrxXoPQpol-9" value="" style="line;strokeWidth=1;fillColor=none;align=left;verticalAlign=middle;spacingTop=-1;spacingLeft=3;spacingRight=3;rotatable=0;labelPosition=right;points=[];portConstraint=eastwest;strokeColor=inherit;" vertex="1" parent="HDausJmTswJrxXoPQpol-7">
          <mxGeometry y="120" width="160" height="28" as="geometry" />
        </mxCell>
        <mxCell id="HDausJmTswJrxXoPQpol-10" value="Car" style="swimlane;fontStyle=1;align=center;verticalAlign=top;childLayout=stackLayout;horizontal=1;startSize=26;horizontalStack=0;resizeParent=1;resizeParentMax=0;resizeLast=0;collapsible=1;marginBottom=0;whiteSpace=wrap;html=1;" vertex="1" parent="WIyWlLk6GJQsqaUBKTNV-1">
          <mxGeometry x="642" y="681" width="160" height="230" as="geometry" />
        </mxCell>
        <mxCell id="HDausJmTswJrxXoPQpol-11" value="&lt;div&gt;&lt;span style=&quot;background-color: initial;&quot;&gt;- Car_id: int {key}&amp;nbsp;&lt;/span&gt;&lt;/div&gt;&lt;div&gt;&lt;div&gt;- License_Num: string&lt;/div&gt;&lt;div&gt;- Model: string&lt;/div&gt;&lt;div&gt;- Make: string&lt;/div&gt;&lt;div&gt;- C_Type: string&lt;/div&gt;&lt;div&gt;- C_year: int&lt;/div&gt;&lt;div&gt;- Trans_Type: string&lt;/div&gt;&lt;div&gt;- Num_Seats: int&lt;/div&gt;&lt;div&gt;- Features: string&lt;/div&gt;&lt;div&gt;- Fuel_Type: string&amp;nbsp;&lt;/div&gt;&lt;div&gt;- Rental_Price: currency&lt;/div&gt;&lt;/div&gt;&lt;div&gt;- car_availibility: bool&lt;/div&gt;" style="text;strokeColor=none;fillColor=none;align=left;verticalAlign=top;spacingLeft=4;spacingRight=4;overflow=hidden;rotatable=0;points=[[0,0.5],[1,0.5]];portConstraint=eastwest;whiteSpace=wrap;html=1;" vertex="1" parent="HDausJmTswJrxXoPQpol-10">
          <mxGeometry y="26" width="160" height="174" as="geometry" />
        </mxCell>
        <mxCell id="HDausJmTswJrxXoPQpol-12" value="" style="line;strokeWidth=1;fillColor=none;align=left;verticalAlign=middle;spacingTop=-1;spacingLeft=3;spacingRight=3;rotatable=0;labelPosition=right;points=[];portConstraint=eastwest;strokeColor=inherit;" vertex="1" parent="HDausJmTswJrxXoPQpol-10">
          <mxGeometry y="200" width="160" height="30" as="geometry" />
        </mxCell>
        <mxCell id="HDausJmTswJrxXoPQpol-13" value="UserProfile" style="swimlane;fontStyle=1;align=center;verticalAlign=top;childLayout=stackLayout;horizontal=1;startSize=26;horizontalStack=0;resizeParent=1;resizeParentMax=0;resizeLast=0;collapsible=1;marginBottom=0;whiteSpace=wrap;html=1;" vertex="1" parent="WIyWlLk6GJQsqaUBKTNV-1">
          <mxGeometry x="30" y="615" width="190" height="210" as="geometry" />
        </mxCell>
        <mxCell id="HDausJmTswJrxXoPQpol-14" value="- Cust_id: int {key}&lt;div&gt;- Cust_name: string&lt;/div&gt;&lt;div&gt;- Cust_phoneNum: string&lt;/div&gt;&lt;div&gt;- Cust_Email: string&lt;/div&gt;&lt;div&gt;- Cust_Address: string&lt;/div&gt;&lt;div&gt;- Nationality: string&lt;/div&gt;&lt;div&gt;- Bank_Acc: int&lt;/div&gt;&lt;div&gt;- Date_Birth: date&lt;/div&gt;&lt;div&gt;- auth_Credit_Worthiness: bool&lt;/div&gt;&lt;div&gt;&lt;br style=&quot;text-align: center;&quot;&gt;&lt;/div&gt;" style="text;strokeColor=none;fillColor=none;align=left;verticalAlign=top;spacingLeft=4;spacingRight=4;overflow=hidden;rotatable=0;points=[[0,0.5],[1,0.5]];portConstraint=eastwest;whiteSpace=wrap;html=1;" vertex="1" parent="HDausJmTswJrxXoPQpol-13">
          <mxGeometry y="26" width="190" height="134" as="geometry" />
        </mxCell>
        <mxCell id="HDausJmTswJrxXoPQpol-15" value="" style="line;strokeWidth=1;fillColor=none;align=left;verticalAlign=middle;spacingTop=-1;spacingLeft=3;spacingRight=3;rotatable=0;labelPosition=right;points=[];portConstraint=eastwest;strokeColor=inherit;" vertex="1" parent="HDausJmTswJrxXoPQpol-13">
          <mxGeometry y="160" width="190" height="50" as="geometry" />
        </mxCell>
        <mxCell id="HDausJmTswJrxXoPQpol-26" value="Order" style="swimlane;fontStyle=1;align=center;verticalAlign=top;childLayout=stackLayout;horizontal=1;startSize=26;horizontalStack=0;resizeParent=1;resizeParentMax=0;resizeLast=0;collapsible=1;marginBottom=0;whiteSpace=wrap;html=1;" vertex="1" parent="WIyWlLk6GJQsqaUBKTNV-1">
          <mxGeometry x="250" y="470" width="220" height="200" as="geometry" />
        </mxCell>
        <mxCell id="HDausJmTswJrxXoPQpol-27" value="&lt;span style=&quot;text-wrap-mode: nowrap;&quot;&gt;- Ord_Id : int {key}&lt;/span&gt;&lt;div style=&quot;text-wrap-mode: nowrap;&quot;&gt;- Booking _Status: bool&lt;/div&gt;&lt;div style=&quot;text-wrap-mode: nowrap;&quot;&gt;- Products: string&lt;/div&gt;&lt;div style=&quot;text-wrap-mode: nowrap;&quot;&gt;- SalesDept_Empl: string&lt;/div&gt;&lt;div style=&quot;text-wrap-mode: nowrap;&quot;&gt;- Cust_Pref: string&lt;/div&gt;&lt;div style=&quot;text-wrap-mode: nowrap;&quot;&gt;- Ord_date: date&lt;/div&gt;&lt;div style=&quot;text-wrap-mode: nowrap;&quot;&gt;- Ord_application: blob&lt;/div&gt;&lt;div style=&quot;text-wrap-mode: nowrap;&quot;&gt;- Sales_dept._digital_signature : blob&lt;/div&gt;" style="text;strokeColor=none;fillColor=none;align=left;verticalAlign=top;spacingLeft=4;spacingRight=4;overflow=hidden;rotatable=0;points=[[0,0.5],[1,0.5]];portConstraint=eastwest;whiteSpace=wrap;html=1;" vertex="1" parent="HDausJmTswJrxXoPQpol-26">
          <mxGeometry y="26" width="220" height="124" as="geometry" />
        </mxCell>
        <mxCell id="HDausJmTswJrxXoPQpol-28" value="" style="line;strokeWidth=1;fillColor=none;align=left;verticalAlign=middle;spacingTop=-1;spacingLeft=3;spacingRight=3;rotatable=0;labelPosition=right;points=[];portConstraint=eastwest;strokeColor=inherit;" vertex="1" parent="HDausJmTswJrxXoPQpol-26">
          <mxGeometry y="150" width="220" height="50" as="geometry" />
        </mxCell>
        <mxCell id="HDausJmTswJrxXoPQpol-43" style="edgeStyle=orthogonalEdgeStyle;rounded=0;orthogonalLoop=1;jettySize=auto;html=1;entryX=0;entryY=0.5;entryDx=0;entryDy=0;" edge="1" parent="WIyWlLk6GJQsqaUBKTNV-1" source="HDausJmTswJrxXoPQpol-34" target="HDausJmTswJrxXoPQpol-14">
          <mxGeometry relative="1" as="geometry" />
        </mxCell>
        <mxCell id="HDausJmTswJrxXoPQpol-34" value="&lt;div&gt;&amp;lt;&amp;lt;controller&amp;gt;&amp;gt;&lt;/div&gt;MakeReservationHandler" style="swimlane;fontStyle=1;align=center;verticalAlign=top;childLayout=stackLayout;horizontal=1;startSize=50;horizontalStack=0;resizeParent=1;resizeParentMax=0;resizeLast=0;collapsible=1;marginBottom=0;whiteSpace=wrap;html=1;" vertex="1" parent="WIyWlLk6GJQsqaUBKTNV-1">
          <mxGeometry x="40" y="345" width="160" height="80" as="geometry" />
        </mxCell>
        <mxCell id="HDausJmTswJrxXoPQpol-35" value="" style="line;strokeWidth=1;fillColor=none;align=left;verticalAlign=middle;spacingTop=-1;spacingLeft=3;spacingRight=3;rotatable=0;labelPosition=right;points=[];portConstraint=eastwest;strokeColor=inherit;" vertex="1" parent="HDausJmTswJrxXoPQpol-34">
          <mxGeometry y="50" width="160" height="30" as="geometry" />
        </mxCell>
        <mxCell id="HDausJmTswJrxXoPQpol-44" style="edgeStyle=orthogonalEdgeStyle;rounded=0;orthogonalLoop=1;jettySize=auto;html=1;entryX=0;entryY=0.5;entryDx=0;entryDy=0;" edge="1" parent="WIyWlLk6GJQsqaUBKTNV-1" source="HDausJmTswJrxXoPQpol-14" target="HDausJmTswJrxXoPQpol-27">
          <mxGeometry relative="1" as="geometry" />
        </mxCell>
        <mxCell id="HDausJmTswJrxXoPQpol-45" style="edgeStyle=orthogonalEdgeStyle;rounded=0;orthogonalLoop=1;jettySize=auto;html=1;entryX=0;entryY=0.5;entryDx=0;entryDy=0;" edge="1" parent="WIyWlLk6GJQsqaUBKTNV-1" source="HDausJmTswJrxXoPQpol-27" target="HDausJmTswJrxXoPQpol-5">
          <mxGeometry relative="1" as="geometry" />
        </mxCell>
        <mxCell id="HDausJmTswJrxXoPQpol-50" value="" style="endArrow=classic;html=1;rounded=0;exitX=1.016;exitY=0.765;exitDx=0;exitDy=0;exitPerimeter=0;entryX=-0.006;entryY=0.533;entryDx=0;entryDy=0;entryPerimeter=0;" edge="1" parent="WIyWlLk6GJQsqaUBKTNV-1" source="HDausJmTswJrxXoPQpol-27" target="HDausJmTswJrxXoPQpol-11">
          <mxGeometry width="50" height="50" relative="1" as="geometry">
            <mxPoint x="540" y="550" as="sourcePoint" />
            <mxPoint x="520" y="890" as="targetPoint" />
            <Array as="points">
              <mxPoint x="520" y="591" />
              <mxPoint x="520" y="800" />
            </Array>
          </mxGeometry>
        </mxCell>
        <mxCell id="HDausJmTswJrxXoPQpol-51" value="" style="endArrow=classic;html=1;rounded=0;exitX=1.005;exitY=0.59;exitDx=0;exitDy=0;exitPerimeter=0;entryX=-0.006;entryY=0.617;entryDx=0;entryDy=0;entryPerimeter=0;" edge="1" parent="WIyWlLk6GJQsqaUBKTNV-1" source="HDausJmTswJrxXoPQpol-27" target="HDausJmTswJrxXoPQpol-8">
          <mxGeometry width="50" height="50" relative="1" as="geometry">
            <mxPoint x="540" y="550" as="sourcePoint" />
            <mxPoint x="590" y="500" as="targetPoint" />
          </mxGeometry>
        </mxCell>
      </root>
    </mxGraphModel>
  </diagram>
</mxfile>
